<mxfile host="app.diagrams.net" modified="2024-02-26T03:21:49.763Z" agent="Mozilla/5.0 (Windows NT 10.0; Win64; x64) AppleWebKit/537.36 (KHTML, like Gecko) Chrome/121.0.0.0 Safari/537.36" version="23.1.6" etag="OO9zxW8cgcqYqxsJQenm" type="github">
  <diagram name="第 1 页" id="rbDqU63NjB74YAJyEC1P">
    <mxGraphModel>
      <root>
        <mxCell id="0" />
        <mxCell id="1" parent="0" />
      </root>
    </mxGraphModel>
  </diagram>
</mxfile>
